<?xml version="1.0" standalone="no"?>
<!DOCTYPE svg PUBLIC "-//W3C//DTD SVG 20010904//EN"
 "http://www.w3.org/TR/2001/REC-SVG-20010904/DTD/svg10.dtd">
<svg version="1.0" xmlns="http://www.w3.org/2000/svg"
 width="424.000000pt" height="492.000000pt" viewBox="0 0 424.000000 492.000000"
 preserveAspectRatio="xMidYMid meet">

<g transform="translate(0.000000,492.000000) scale(0.100000,-0.100000)"
fill="#000000" stroke="none">
<path d="M1125 4378 c23 -6 20 -6 -13 -4 -23 2 -40 0 -36 -5 3 -5 -2 -6 -10
-3 -47 18 -200 -126 -182 -172 3 -8 2 -13 -3 -10 -14 9 -21 -35 -17 -114 3
-56 2 -63 -4 -30 l-7 45 -1 -49 c-1 -31 -9 -57 -19 -70 -17 -20 -17 -20 0 -7
22 18 22 7 -5 -57 -22 -53 -22 -54 -4 -100 29 -77 31 -86 17 -77 -7 4 -22 26
-33 49 -16 34 -18 36 -13 11 4 -16 17 -44 31 -61 l23 -32 1 -1478 c0 -814 4
-1506 9 -1539 10 -71 36 -139 50 -131 5 4 13 1 17 -5 4 -8 3 -9 -4 -5 -28 17
-8 -15 33 -53 41 -37 75 -55 60 -31 -4 6 1 7 11 3 15 -5 15 -7 0 -15 -9 -5
-20 -7 -25 -3 -5 3 -12 1 -16 -5 -4 -6 12 -11 42 -12 26 -1 -60 -5 -192 -8
-132 -3 174 -6 680 -6 506 0 895 2 865 6 -30 4 267 7 662 6 394 -1 711 2 705
6 -8 5 -4 8 8 8 37 0 120 46 154 85 42 48 61 92 72 170 5 33 9 513 9 1068 0
554 3 1007 7 1007 9 0 7 249 -1 258 -8 7 -8 77 0 84 8 9 10 258 2 258 -5 0 -8
32 -8 70 0 40 4 70 10 70 6 0 10 28 10 65 0 36 -4 65 -9 65 -5 0 -11 114 -14
253 -3 147 -9 267 -16 289 -32 101 -121 178 -232 198 -62 11 -1449 19 -1404 8
23 -6 20 -6 -13 -4 -28 3 -40 1 -35 -7 4 -6 0 -8 -10 -4 -22 8 -49 -2 -40 -16
4 -6 0 -8 -11 -4 -21 8 -107 -68 -100 -88 3 -7 0 -16 -7 -21 -8 -5 -10 -3 -5
7 4 8 0 5 -8 -5 -9 -12 -13 -28 -10 -39 4 -12 2 -17 -4 -13 -13 8 -21 -24 -29
-119 -5 -62 -11 -87 -30 -111 -12 -17 -23 -35 -23 -40 0 -5 10 6 21 24 31 47
35 32 9 -32 -22 -53 -23 -55 -6 -103 30 -84 31 -92 7 -63 -12 14 -24 36 -27
50 -9 41 -14 53 -19 48 -9 -8 15 -74 38 -105 l23 -32 2 -1478 c1 -813 5 -1502
8 -1530 4 -29 10 -51 14 -48 5 3 6 -3 3 -13 -6 -24 23 -95 36 -88 5 4 13 1 17
-5 4 -8 3 -9 -4 -5 -24 15 -11 -11 21 -42 33 -32 54 -42 41 -19 -4 7 -3 9 2 4
5 -5 9 -14 9 -20 0 -5 6 -12 14 -15 8 -3 11 0 7 7 -5 7 -1 9 10 4 14 -5 13 -8
-7 -19 -21 -11 -17 -12 36 -9 46 2 54 1 35 -7 -15 -5 -146 -8 -315 -6 -280 3
-292 4 -342 27 -59 26 -127 94 -150 148 -8 20 -19 75 -24 123 -10 105 -14
3146 -4 3315 8 133 27 199 74 255 44 53 123 93 201 99 36 3 -95 6 -290 6 -195
0 -341 -3 -325 -7z m480 -30 c-11 -6 -29 -19 -40 -29 -18 -16 -45 -18 -230
-22 -116 -2 -217 -6 -225 -8 -72 -23 -97 -35 -113 -56 -11 -13 -26 -22 -33
-19 -8 3 -14 1 -14 -4 0 -6 -3 -9 -8 -7 -4 1 -8 -2 -9 -7 -1 -5 -7 -12 -15
-17 -10 -6 -14 -54 -19 -191 l-5 -183 -2 167 c-2 147 0 174 19 222 25 67 91
130 158 150 59 19 569 22 536 4z m2225 -24 c66 -37 113 -101 129 -174 8 -35
10 -395 9 -1163 -1 -1014 -2 -1065 -9 -577 -7 519 -13 648 -28 606 -7 -18 -8
-18 -14 -2 -4 10 -13 16 -21 13 -10 -4 -12 0 -9 14 4 13 0 19 -12 19 -9 0 -46
29 -82 65 -36 35 -70 62 -76 58 -5 -3 -6 3 -2 16 5 16 2 21 -11 21 -9 0 -22 7
-29 16 -10 15 -13 15 -28 -1 -14 -14 -17 -14 -17 -2 0 9 6 17 13 20 11 4 -1
11 -40 22 -6 2 -14 17 -18 34 -6 28 -10 31 -46 31 -32 0 -39 3 -39 20 0 11 -4
20 -10 20 -5 0 -10 8 -10 18 0 14 -2 15 -10 2 -8 -13 -12 -12 -25 8 -9 12 -23
22 -31 22 -8 0 -14 6 -14 14 0 8 -10 18 -22 22 -13 4 -34 15 -48 26 -49 37
-101 68 -116 68 -8 0 -25 11 -38 25 -16 17 -29 22 -44 18 -16 -4 -22 -1 -22
10 0 19 -59 42 -61 24 -4 -37 -18 97 -24 218 -8 207 -13 245 -39 300 -40 88
-99 129 -204 145 -31 4 -138 11 -237 14 -193 6 -203 7 -223 20 -7 4 -19 2 -27
-4 -8 -7 -15 -10 -15 -6 0 11 -73 -24 -101 -47 -14 -12 -8 -6 13 14 72 69 58
68 863 66 l720 -2 55 -31z m-2840 3 c0 -2 -17 -19 -37 -38 l-38 -34 34 38 c33
34 41 42 41 34z m1210 0 c0 -2 -17 -19 -37 -38 l-38 -34 34 38 c33 34 41 42
41 34z m-1055 -68 c-61 -15 -111 -55 -140 -112 -25 -50 -25 -53 -25 -304 0
-276 4 -299 58 -356 53 -56 74 -62 252 -68 l165 -5 -155 -2 c-174 -2 -208 7
-267 69 -60 64 -63 83 -66 373 l-2 263 38 56 c42 61 101 98 152 96 27 -1 26
-2 -10 -10z m365 9 c0 -13 -49 -96 -54 -91 -9 10 -26 -46 -26 -89 0 -25 -7
-49 -17 -61 -10 -11 -12 -17 -5 -13 7 4 12 2 12 -6 0 -8 -8 -14 -19 -15 -14
-1 -17 4 -15 23 1 13 -1 22 -5 19 -4 -2 -8 12 -9 31 -2 47 -27 98 -67 133 -25
22 -30 32 -22 40 9 9 8 14 -3 21 -10 6 27 10 108 10 67 0 122 -1 122 -2z m857
-4 c-3 -3 -12 -4 -19 -1 -8 3 -5 6 6 6 11 1 17 -2 13 -5z m460 -9 c70 -21 127
-83 142 -156 12 -57 13 -283 0 -334 -6 -28 -7 -29 -9 -5 -5 62 -11 147 -11
167 1 12 -4 25 -9 28 -6 4 -7 -2 -4 -12 4 -12 -2 -9 -17 9 -61 68 -152 87
-229 48 -38 -20 -90 -81 -90 -108 0 -8 -7 -6 -22 7 -11 11 -26 18 -31 14 -6
-4 -7 -1 -1 8 15 23 33 102 32 139 0 36 -2 31 -13 -31 -6 -40 -41 -93 -56 -84
-5 3 0 23 11 43 41 76 15 161 -61 200 -46 23 -69 46 -69 69 0 20 368 18 437
-2z m-534 -21 c-26 -15 -54 -44 -70 -72 l-28 -47 -6 -265 -5 -265 0 272 1 271
30 44 c30 42 87 88 109 88 6 0 -8 -12 -31 -26z m-1002 -35 c33 -23 69 -94 69
-135 0 -31 -31 -107 -48 -118 -12 -7 -9 21 6 57 30 72 3 149 -67 189 -23 13
-41 27 -41 32 0 12 50 -3 81 -25z m1200 -56 c13 -17 13 -17 -6 -2 -40 32 -48
33 -40 8 16 -50 15 -53 -4 -14 -11 22 -20 43 -20 48 -1 12 54 -19 70 -40z
m-384 -45 c-3 -7 -5 -2 -5 12 0 14 2 19 5 13 2 -7 2 -19 0 -25z m-30 -80 c-2
-18 -4 -6 -4 27 0 33 2 48 4 33 2 -15 2 -42 0 -60z m-860 30 c-3 -7 -5 -2 -5
12 0 14 2 19 5 13 2 -7 2 -19 0 -25z m1210 0 c-3 -7 -5 -2 -5 12 0 14 2 19 5
13 2 -7 2 -19 0 -25z m434 -61 c18 -12 44 -38 57 -57 20 -29 23 -44 20 -93 -9
-120 -96 -176 -213 -137 -34 11 -95 70 -95 92 0 6 10 -4 23 -23 31 -48 81 -71
135 -65 82 11 122 58 122 145 0 42 -5 56 -30 85 -53 60 -136 71 -194 25 -34
-27 -49 -54 -57 -109 l-6 -45 -2 56 c-1 63 18 96 73 130 45 27 124 25 167 -4z
m-784 -2375 c-1 -433 -2 -78 -2 788 0 866 1 1221 2 787 2 -433 2 -1141 0
-1575z m-1210 1 c-1 -433 -2 -81 -2 782 0 864 1 1218 2 788 2 -430 2 -1136 0
-1570z m573 2307 c-9 -21 -16 -28 -23 -21 -7 7 -4 19 7 36 23 34 32 25 16 -15z
m-23 -77 c-3 -10 -5 -4 -5 12 0 17 2 24 5 18 2 -7 2 -21 0 -30z m797 -309 c3
-8 2 -12 -4 -9 -6 3 -10 10 -10 16 0 14 7 11 14 -7z m91 -92 c11 -6 14 -12 7
-12 -7 0 -30 17 -50 38 -21 20 -24 25 -7 11 16 -15 39 -31 50 -37z m398 -29
c-62 -2 -164 -2 -225 0 -62 1 -12 3 112 3 124 0 174 -2 113 -3z m-626 -2690
c-2 -16 -4 -3 -4 27 0 30 2 43 4 28 2 -16 2 -40 0 -55z m-1122 -223 c10 -11
16 -20 13 -20 -3 0 -13 9 -23 20 -10 11 -16 20 -13 20 3 0 13 -9 23 -20z
m1210 0 c10 -11 16 -20 13 -20 -3 0 -13 9 -23 20 -10 11 -16 20 -13 20 3 0 13
-9 23 -20z m-1058 -76 c-3 -3 -12 -4 -19 -1 -8 3 -5 6 6 6 11 1 17 -2 13 -5z
m401 -11 c-71 -2 -185 -2 -255 0 -71 1 -13 3 127 3 140 0 198 -2 128 -3z"/>
<path d="M520 4223 c-136 -51 -147 -255 -17 -317 75 -35 188 -8 225 54 l14 25
-20 -25 c-11 -14 -32 -26 -45 -27 l-24 -2 28 28 c79 80 42 214 -68 244 -23 6
-40 14 -37 19 6 9 -33 10 -56 1z m-30 -268 c13 -14 21 -25 18 -25 -2 0 -15 11
-28 25 -13 14 -21 25 -18 25 2 0 15 -11 28 -25z"/>
<path d="M1705 4207 c-47 -26 -85 -92 -85 -150 0 -52 32 -111 77 -142 44 -30
126 -34 173 -10 35 18 41 40 8 29 -19 -6 -17 -2 9 20 42 35 59 95 44 147 -13
44 -67 94 -110 104 -17 4 -29 11 -25 16 11 18 -52 8 -91 -14z"/>
<path d="M1925 3954 c-9 -15 -12 -23 -6 -20 11 7 35 46 28 46 -3 0 -12 -12
-22 -26z"/>
<path d="M800 3919 c-6 -11 -10 -25 -8 -30 2 -5 8 4 15 21 13 34 9 40 -7 9z"/>
<path d="M2001 3884 c0 -11 3 -14 6 -6 3 7 2 16 -1 19 -3 4 -6 -2 -5 -13z"/>
<path d="M781 3844 c0 -11 3 -14 6 -6 3 7 2 16 -1 19 -3 4 -6 -2 -5 -13z"/>
<path d="M520 3789 c-32 -13 -78 -57 -96 -91 -8 -15 -14 -48 -14 -73 0 -53 16
-88 57 -127 55 -52 119 -61 190 -27 116 56 125 224 17 298 -39 27 -115 37
-154 20z m-83 -171 c-3 -7 -5 -2 -5 12 0 14 2 19 5 13 2 -7 2 -19 0 -25z m88
-126 c-3 -3 -11 0 -18 7 -9 10 -8 11 6 5 10 -3 15 -9 12 -12z"/>
<path d="M1725 3786 c-115 -53 -140 -202 -49 -288 76 -71 196 -60 255 24 31
43 38 132 14 183 -35 73 -148 115 -220 81z"/>
<path d="M498 413 c7 -3 16 -2 19 1 4 3 -2 6 -13 5 -11 0 -14 -3 -6 -6z"/>
<path d="M2458 403 c12 -2 32 -2 45 0 12 2 2 4 -23 4 -25 0 -35 -2 -22 -4z"/>
</g>
</svg>
